<?xml version="1.0" encoding="UTF-8" standalone="no"?>
<!-- Created with Inkscape (http://www.inkscape.org/) -->

<svg
   version="1.1"
   id="svg1"
   width="392.51694"
   height="183.05084"
   viewBox="0 0 392.51694 183.05084"
   sodipodi:docname="SEwhiteLogo.svg"
   inkscape:version="1.4.2 (ebf0e940, 2025-05-08)"
   xmlns:inkscape="http://www.inkscape.org/namespaces/inkscape"
   xmlns:sodipodi="http://sodipodi.sourceforge.net/DTD/sodipodi-0.dtd"
   xmlns="http://www.w3.org/2000/svg"
   xmlns:svg="http://www.w3.org/2000/svg">
  <defs
     id="defs1">
    <clipPath
       clipPathUnits="userSpaceOnUse"
       id="clipPath13">
      <rect
         style="fill:none;stroke-width:0.996959"
         id="rect14"
         width="392.51694"
         height="183.05084"
         x="107.5139"
         y="68.644073" />
    </clipPath>
  </defs>
  <sodipodi:namedview
     id="namedview1"
     pagecolor="#ffffff"
     bordercolor="#000000"
     borderopacity="0.25"
     inkscape:showpageshadow="2"
     inkscape:pageopacity="0.0"
     inkscape:pagecheckerboard="0"
     inkscape:deskcolor="#d1d1d1"
     inkscape:zoom="1.18"
     inkscape:cx="181.35593"
     inkscape:cy="69.491525"
     inkscape:window-width="1472"
     inkscape:window-height="891"
     inkscape:window-x="1"
     inkscape:window-y="38"
     inkscape:window-maximized="0"
     inkscape:current-layer="g1">
    <inkscape:page
       x="0"
       y="0"
       inkscape:label="1"
       id="page1"
       width="392.51694"
       height="183.05084"
       margin="0"
       bleed="0" />
  </sodipodi:namedview>
  <g
     id="g1"
     inkscape:groupmode="layer"
     inkscape:label="1"
     transform="translate(-107.5139,-68.644073)">
    <path
       id="path2"
       d="M 88.983051,65.80476 503.40012,68.347132 505.08474,245.46578 89.825361,256.48273 Z"
       style="fill:#ffffff;fill-opacity:1;fill-rule:nonzero;stroke:none;stroke-width:0.996959"
       sodipodi:nodetypes="ccccc"
       clip-path="url(#clipPath13)" />
    <g
       id="g5">
      <path
         id="path5"
         d="M 20.262982,0.00145123 V -178.12945 H 141.05368 v 21.61079 H 45.336834 v 54.12689 h 70.659646 v 21.594148 H 45.336834 v 59.204926 H 141.05368 V 0.00145123 Z m 0,0"
         style="fill:#0f4ea4;fill-opacity:1;fill-rule:nonzero;stroke:none"
         aria-label="E"
         transform="matrix(0.93847766,0,0,0.93847766,208.34693,241.89833)" />
    </g>
    <path
       id="path7"
       d="M 193.86966,73.934123 H 251.4124 V 247.46146 h -57.54274 z"
       style="fill:#ffffff;fill-opacity:1;fill-rule:nonzero;stroke:none;stroke-width:0.224776" />
    <g
       id="g9">
      <path
         id="path9"
         d="m 78.932831,3.1981176 c -9.781466,0 -19.292381,-1.5109243 -28.536907,-4.5286107 -9.248688,-3.0176864 -17.381874,-7.633706 -24.40788,-13.8522209 -7.017682,-6.22684 -12.120693,-14.139422 -15.31736,-23.741908 l 23.192481,-6.94276 c 2.131111,6.40582 5.594166,11.700299 10.389166,15.883436 4.803324,4.174813 10.360029,7.238285 16.665953,9.190416 6.314249,1.956294 12.674283,2.930278 19.080103,2.930278 7.100928,0 13.856383,-1.152965 20.262203,-3.463055 6.40166,-2.305929 11.60457,-5.81477 15.6004,-10.522361 3.99583,-4.715915 5.99375,-10.63058 5.99375,-17.748158 0,-7.292395 -2.67222,-13.069704 -8.00832,-17.331926 -5.32777,-4.262222 -14.568139,-8.083237 -27.721089,-11.47137 l -22.659703,-5.061389 c -8.183133,-2.131111 -16.228909,-4.969817 -24.141491,-8.524444 -7.904257,-3.562951 -14.393324,-8.628505 -19.463037,-15.200815 -5.061388,-6.58064 -7.592083,-15.38396 -7.592083,-26.4058 0,-10.1311 3.150881,-18.75127 9.456805,-25.85637 6.314249,-7.11341 14.49322,-12.53692 24.541075,-16.26637 10.043692,-3.73776 20.486968,-5.61081 31.33399,-5.61081 8.345464,0 16.566058,1.20707 24.657623,3.6129 8.09156,2.3975 15.37563,6.03953 21.86053,10.92194 6.49323,4.88657 11.60457,11.15087 15.33401,18.79707 l -22.92609,6.67637 c -3.37565,-6.22684 -8.84078,-10.9386 -16.39956,-14.13526 -7.558788,-3.20499 -15.425585,-4.81165 -23.592068,-4.81165 -6.40582,0 -12.545251,1.02809 -18.414131,3.08012 -5.860555,2.0437 -10.663879,5.10717 -14.401648,9.19042 -3.729444,4.0874 -5.594166,9.24036 -5.594166,15.4672 0,5.87304 1.731528,10.58479 5.194583,14.13526 3.47138,3.55463 8.095724,6.35587 13.86887,8.4079 5.781471,2.0437 12.141505,3.86264 19.080103,5.46097 l 19.463036,4.26222 c 9.065551,2.131112 17.598311,5.069714 25.589981,8.807483 7.99999,3.729444 14.48906,8.973975 19.46304,15.733593 4.9823,6.751293 7.47553,15.812676 7.47553,27.188313 0,8.183133 -1.96045,15.517152 -5.8772,22.010381 -3.90842,6.484904 -9.15296,11.904252 -15.73359,16.26637 -6.57232,4.3537929 -13.99374,7.6836537 -22.26012,9.98958236 C 96.131563,2.040991 87.64458,3.1981176 78.932831,3.1981176 Z m 0,0"
         style="fill:#0f4ea4;fill-opacity:1;fill-rule:nonzero;stroke:none"
         aria-label="S"
         transform="matrix(0.93847766,0,0,0.93847766,102.24752,241.89833)" />
    </g>
    <g
       id="g11">
      <path
         id="path11"
         d="m 11.095401,0.45367259 c -1.9179688,0 -3.5898439,-0.35156251 -5.0156252,-1.04687504 C 4.661807,-1.288515 3.568057,-2.257265 2.7985257,-3.4994526 c -0.7734375,-1.25 -1.1562501,-2.6953126 -1.1562501,-4.3437502 h 3.2812502 c 0,1.0234376 0.234375,1.9648439 0.703125,2.8281252 0.4765625,0.8554687 1.1718751,1.5390625 2.0781251,2.046875 0.9140625,0.5117188 2.0468751,0.7656251 3.3906251,0.7656251 1.757813,0 3.125,-0.421875 4.09375,-1.2656251 0.96875,-0.84375 1.453125,-1.8984376 1.453125,-3.1718751 0,-1.0507813 -0.226562,-1.8906251 -0.671875,-2.5156251 -0.449219,-0.6328125 -1.054687,-1.1484372 -1.8125,-1.5468752 -0.75,-0.40625 -1.621094,-0.753906 -2.609375,-1.046875 -0.980469,-0.300781 -2.0078125,-0.640625 -3.0781251,-1.015625 -2.0117188,-0.695312 -3.5078126,-1.5625 -4.4843752,-2.59375 -0.96875,-1.03125 -1.453125,-2.378906 -1.453125,-4.046875 -0.023437,-1.394532 0.3007812,-2.632813 0.96875,-3.71875 0.6757813,-1.082032 1.6289063,-1.925782 2.8593751,-2.53125 1.2382813,-0.613282 2.7031252,-0.921876 4.3906252,-0.921876 1.664063,0 3.113281,0.3125 4.34375,0.937501 1.238282,0.617187 2.195313,1.476562 2.875,2.578125 0.6875,1.09375 1.039063,2.335937 1.0625,3.71875 h -3.28125 c 0,-0.71875 -0.1875,-1.429688 -0.5625,-2.140625 -0.375,-0.707032 -0.945312,-1.285157 -1.703125,-1.734375 -0.75,-0.445313 -1.699219,-0.671875 -2.84375,-0.671875 -1.4179688,-0.01953 -2.5859376,0.34375 -3.5000001,1.09375 -0.9062501,0.742187 -1.3593751,1.773437 -1.3593751,3.09375 0,1.117187 0.3164063,1.976562 0.9531251,2.578125 0.6328125,0.59375 1.5234375,1.085937 2.6718751,1.46875 1.144531,0.386719 2.460938,0.828125 3.953125,1.328125 1.25,0.449219 2.367188,0.96875 3.359375,1.5625 1,0.59375 1.773438,1.367188 2.328125,2.3125 0.5625,0.9492189 0.84375,2.1562502 0.84375,3.6250003 0,1.2421875 -0.324218,2.4179688 -0.96875,3.5312501 -0.648437,1.1054688 -1.625,2.0078126 -2.9375,2.70312515 -1.304687,0.69531253 -2.933594,1.04687504 -4.890625,1.04687504 z M 46.704778,5.4757145e-4 V -23.546328 h -7.812501 v -2.578126 h 18.750001 v 2.578126 h -7.8125 V 5.4757145e-4 Z m 31.019532,0 V -26.124454 h 16.156251 v 2.578126 H 80.84931 v 9.09375 h 11.921876 v 2.546875 H 80.84931 v 9.3281255 H 93.880561 V 5.4757145e-4 Z m 37.29297,0 V -26.124454 h 15.90625 v 2.578126 h -12.78125 v 9.171875 h 10.875 v 2.546875 h -10.875 V 5.4757145e-4 Z m 36.17578,0 V -26.124454 h 15.90625 v 2.578126 h -12.78125 v 9.171875 h 10.875 v 2.546875 h -10.875 V 5.4757145e-4 Z m 36.17188,0 V -26.124454 h 16.15625 v 2.578126 h -13.03125 v 9.09375 h 11.92188 v 2.546875 h -11.92188 v 9.3281255 h 13.03125 V 5.4757145e-4 Z m 37.29297,0 V -26.124454 h 3.125 l 13.9375,20.9375014 V -26.124454 h 3.125 V 5.4757145e-4 h -3.125 L 227.78291,-20.936953 V 5.4757145e-4 Z m 0,0"
         style="fill:#0f4ea4;fill-opacity:1;fill-rule:nonzero;stroke:none"
         aria-label="STEFFEN"
         transform="translate(251.41241,134.4343)" />
    </g>
    <g
       id="g13">
      <path
         id="path13"
         d="M 2.7672757,-0.00111976 V -26.126121 H 18.923526 v 2.578125 H 5.8922758 v 9.093751 H 17.814151 v 2.546875 H 5.8922758 v 9.3281251 H 18.923526 v 2.57812514 z m 37.2929703,0 V -26.126121 h 3.125 L 57.122747,-5.18862 v -20.937501 h 3.125 v 26.12500124 h -3.125 L 43.185246,-20.938621 v 20.93750124 z m 41.957033,0 V -26.126121 H 98.17353 v 2.578125 H 85.142279 v 9.093751 h 11.921876 v 2.546875 H 85.142279 v 9.3281251 H 98.17353 v 2.57812514 z m 37.292971,0 V -26.126121 h 8.4375 c 2.03906,0 3.70703,0.339844 5,1.015625 1.28906,0.667969 2.25,1.585938 2.875,2.75 0.625,1.167969 0.9375,2.460938 0.9375,3.875 0,1.648438 -0.44531,3.132813 -1.32813,4.453126 -0.88671,1.3125 -2.26171,2.246093 -4.125,2.796875 l 5.70313,11.23437524 h -3.6875 L 127.81025,-10.78237 h -5.375 v 10.78125024 z m 3.125,-13.25000024 h 5.07812 c 2.01954,0 3.48829,-0.484375 4.40625,-1.453125 0.92579,-0.96875 1.39063,-2.210938 1.39063,-3.734376 0,-1.539062 -0.46094,-2.765625 -1.375,-3.671875 -0.90625,-0.914062 -2.39063,-1.375 -4.45313,-1.375 h -5.04687 z m 46.48438,13.70312526 c -2.4375,0 -4.57813,-0.56640627 -6.42188,-1.70312506 -1.84375,-1.1328126 -3.27734,-2.7109376 -4.29687,-4.7343752 -1.02344,-2.0312501 -1.53125,-4.378906 -1.53125,-7.046875 0,-2.65625 0.51562,-5.003907 1.54687,-7.046876 1.03906,-2.039062 2.50781,-3.632812 4.40625,-4.78125 1.90625,-1.144531 4.15625,-1.71875 6.75,-1.71875 2.92578,0 5.36719,0.710938 7.32813,2.125 1.95703,1.417969 3.21875,3.371094 3.78125,5.859375 h -3.60938 c -0.35547,-1.5625 -1.1875,-2.800781 -2.5,-3.71875 -1.30469,-0.925781 -2.96875,-1.390625 -5,-1.390625 -1.91797,0 -3.58984,0.433594 -5.01562,1.296875 -1.41797,0.855469 -2.51563,2.078125 -3.29688,3.671875 -0.78125,1.593751 -1.17187,3.496094 -1.17187,5.703126 0,2.21875 0.38281,4.1249999 1.15625,5.7187499 0.76953,1.5937501 1.83593,2.8203127 3.20312,3.6718752 1.375,0.8554688 2.96875,1.28125 4.78125,1.28125 2.78906,0 4.89453,-0.8125 6.3125,-2.4375001 1.41406,-1.625 2.22266,-3.8593751 2.42188,-6.703125 h -7.54688 v -2.453125 h 10.76563 v 13.95312524 h -2.875 L 177.8415,-4.2979949 c -0.94922,1.5234375 -2.10937,2.6953126 -3.48437,3.51562511 -1.36719,0.82031253 -3.17969,1.23437505 -5.4375,1.23437505 z m 39.75,-0.45312502 V -9.9229952 l -8.5,-16.2031258 h 3.54687 l 6.53125,13.203126 6.53125,-13.203126 h 3.5 l -8.46875,16.2031258 v 9.92187544 z m 0,0"
         style="fill:#0f4ea4;fill-opacity:1;fill-rule:nonzero;stroke:none"
         aria-label="ENERGY"
         transform="translate(251.41241,209.29143)" />
    </g>
  </g>
</svg>
